<svg width="294" height="160" viewBox="0 0 294 160" fill="none" xmlns="http://www.w3.org/2000/svg">
<path d="M64.3129 0.291565C47.9821 1.69475 33.4888 6.48747 22.8083 14.0137C13.9883 20.2278 6.36272 30.8702 2.75662 42.0046C-2.5951 58.5512 0.0463091 75.9727 10.1526 90.6788C14.4247 96.9112 18.7888 101.084 24.9444 104.82C34.9588 110.87 49.5899 115.426 65.3465 117.376C66.9772 117.576 68.3324 117.759 68.3783 117.777C68.4243 117.831 69.366 122.351 72.1452 135.854C72.6505 138.351 73.9368 144.62 75.0163 149.777C76.0729 154.916 76.9457 159.162 76.9457 159.198C76.9457 159.38 78.0022 160 78.3468 160C79.4493 160 79.5641 159.8 88.8894 138.661L97.9851 117.995L163.101 117.886C222.016 117.795 228.448 117.759 230.79 117.485C249.579 115.298 263.176 110.36 273.581 101.904C277.738 98.5513 280.633 95.3986 283.848 90.6788C295.838 73.2392 297.239 52.082 287.661 33.4579C285.456 29.1754 281.459 23.508 278.336 20.2278C268.964 10.3508 254.31 3.71753 235.843 1.02049C228.539 -0.0546764 233.202 -6.66827e-06 146.61 0.0182166C81.3787 0.0364398 66.6786 0.0911095 64.3129 0.291565ZM227.85 2.55125C233.96 3.00683 240.368 4.04555 246.271 5.5763C260.765 9.33029 271.675 15.8724 278.91 25.1663C295.103 45.9772 294.988 72.3827 278.611 93.0661C271.445 102.123 260.512 108.592 246.088 112.31C240.988 113.622 236.923 114.351 230.262 115.134C227.988 115.39 221.075 115.426 162.022 115.481C100.19 115.535 96.2854 115.572 95.9408 115.863C95.7341 116.027 94.0804 119.581 92.2658 123.736C80.9882 149.358 79.2196 153.367 79.0818 153.622C79.0129 153.768 78.7602 153.039 78.5305 151.982C78.1401 150.105 75.2919 136.328 72.5586 123.007C71.8007 119.326 71.0427 116.173 70.859 115.954C70.6522 115.718 70.1929 115.517 69.7794 115.462C69.366 115.408 67.8271 115.244 66.3801 115.08C55.7685 113.895 42.9519 110.615 34.798 107.025C22.9691 101.813 16.1015 95.7995 10.2215 85.467C0.0233404 67.5718 0.75834 46.3964 12.1968 29.1754C17.4796 21.2301 23.3596 15.9635 31.8121 11.5535C40.9996 6.77904 53.4257 3.48063 65.8058 2.56947C68.9526 2.33257 224.635 2.33257 227.85 2.55125Z" fill="black"/>
<path d="M39.2656 49.0708H34.644V52.8501H40.0127V54H33.2378V43.3359H39.9395V44.4932H34.644V47.9209H39.2656V49.0708ZM44.9053 49.2466C43.6992 48.8999 42.8203 48.4751 42.2686 47.9722C41.7217 47.4644 41.4482 46.8394 41.4482 46.0972C41.4482 45.2573 41.7827 44.564 42.4517 44.0171C43.1255 43.4653 43.9995 43.1895 45.0737 43.1895C45.8062 43.1895 46.458 43.3311 47.0293 43.6143C47.6055 43.8975 48.0498 44.2881 48.3623 44.7861C48.6797 45.2842 48.8384 45.8286 48.8384 46.4194H47.4248C47.4248 45.7749 47.2197 45.2695 46.8096 44.9033C46.3994 44.5322 45.8208 44.3467 45.0737 44.3467C44.3804 44.3467 43.8384 44.5005 43.4478 44.8081C43.062 45.1108 42.8691 45.5332 42.8691 46.0752C42.8691 46.5098 43.0522 46.8784 43.4185 47.1812C43.7896 47.479 44.417 47.7524 45.3008 48.0015C46.1895 48.2505 46.8828 48.5264 47.3809 48.8291C47.8838 49.127 48.2549 49.4761 48.4941 49.8765C48.7383 50.2769 48.8604 50.748 48.8604 51.29C48.8604 52.1543 48.5234 52.8477 47.8496 53.3701C47.1758 53.8877 46.2749 54.1465 45.147 54.1465C44.4146 54.1465 43.731 54.0073 43.0962 53.729C42.4614 53.4458 41.9707 53.0601 41.624 52.5718C41.2822 52.0835 41.1113 51.5293 41.1113 50.9092H42.5249C42.5249 51.5537 42.7617 52.064 43.2354 52.4399C43.7139 52.811 44.3511 52.9966 45.147 52.9966C45.8892 52.9966 46.458 52.8452 46.8535 52.5425C47.249 52.2397 47.4468 51.8271 47.4468 51.3047C47.4468 50.7822 47.2637 50.3794 46.8975 50.0962C46.5312 49.8081 45.8672 49.5249 44.9053 49.2466ZM58.0376 44.4932H54.6099V54H53.2109V44.4932H49.7905V43.3359H58.0376V44.4932ZM64.9224 51.2168H60.4546L59.4512 54H58.001L62.0732 43.3359H63.3037L67.3833 54H65.9404L64.9224 51.2168ZM60.8794 50.0596H64.5049L62.6885 45.0718L60.8794 50.0596ZM70.6353 43.3359L74.1216 52.0371L77.6079 43.3359H79.4316V54H78.0254V49.8472L78.1572 45.3647L74.6562 54H73.5796L70.0859 45.3867L70.2251 49.8472V54H68.8188V43.3359H70.6353ZM90.1177 49.0122C90.1177 50.0571 89.9419 50.9702 89.5903 51.7515C89.2388 52.5278 88.7407 53.1211 88.0962 53.5312C87.4517 53.9414 86.6997 54.1465 85.8403 54.1465C85.0005 54.1465 84.2559 53.9414 83.6064 53.5312C82.957 53.1162 82.4517 52.5278 82.0903 51.7661C81.7339 50.9995 81.5508 50.1133 81.541 49.1074V48.3384C81.541 47.313 81.7192 46.4072 82.0757 45.6211C82.4321 44.835 82.9351 44.2344 83.5845 43.8193C84.2388 43.3994 84.9858 43.1895 85.8257 43.1895C86.6802 43.1895 87.4321 43.397 88.0815 43.812C88.7358 44.2222 89.2388 44.8203 89.5903 45.6064C89.9419 46.3877 90.1177 47.2983 90.1177 48.3384V49.0122ZM88.7188 48.3237C88.7188 47.0591 88.4648 46.0898 87.957 45.416C87.4492 44.7373 86.7388 44.3979 85.8257 44.3979C84.937 44.3979 84.2363 44.7373 83.7236 45.416C83.2158 46.0898 82.9546 47.0273 82.9399 48.2285V49.0122C82.9399 50.2378 83.1963 51.2021 83.709 51.9053C84.2266 52.6035 84.937 52.9526 85.8403 52.9526C86.7485 52.9526 87.4517 52.623 87.9497 51.9639C88.4478 51.2998 88.7041 50.3501 88.7188 49.1147V48.3237ZM95.3691 49.2466C94.1631 48.8999 93.2842 48.4751 92.7324 47.9722C92.1855 47.4644 91.9121 46.8394 91.9121 46.0972C91.9121 45.2573 92.2466 44.564 92.9155 44.0171C93.5894 43.4653 94.4634 43.1895 95.5376 43.1895C96.27 43.1895 96.9219 43.3311 97.4932 43.6143C98.0693 43.8975 98.5137 44.2881 98.8262 44.7861C99.1436 45.2842 99.3022 45.8286 99.3022 46.4194H97.8887C97.8887 45.7749 97.6836 45.2695 97.2734 44.9033C96.8633 44.5322 96.2847 44.3467 95.5376 44.3467C94.8442 44.3467 94.3022 44.5005 93.9116 44.8081C93.5259 45.1108 93.333 45.5332 93.333 46.0752C93.333 46.5098 93.5161 46.8784 93.8823 47.1812C94.2534 47.479 94.8809 47.7524 95.7646 48.0015C96.6533 48.2505 97.3467 48.5264 97.8447 48.8291C98.3477 49.127 98.7188 49.4761 98.958 49.8765C99.2021 50.2769 99.3242 50.748 99.3242 51.29C99.3242 52.1543 98.9873 52.8477 98.3135 53.3701C97.6396 53.8877 96.7388 54.1465 95.6108 54.1465C94.8784 54.1465 94.1948 54.0073 93.5601 53.729C92.9253 53.4458 92.4346 53.0601 92.0879 52.5718C91.7461 52.0835 91.5752 51.5293 91.5752 50.9092H92.9888C92.9888 51.5537 93.2256 52.064 93.6992 52.4399C94.1777 52.811 94.8149 52.9966 95.6108 52.9966C96.353 52.9966 96.9219 52.8452 97.3174 52.5425C97.7129 52.2397 97.9106 51.8271 97.9106 51.3047C97.9106 50.7822 97.7275 50.3794 97.3613 50.0962C96.9951 49.8081 96.3311 49.5249 95.3691 49.2466ZM106.26 49.8252V54H104.854V43.3359H108.787C109.954 43.3359 110.867 43.6338 111.526 44.2295C112.19 44.8252 112.522 45.6138 112.522 46.5952C112.522 47.6304 112.198 48.4287 111.548 48.9902C110.904 49.5469 109.979 49.8252 108.772 49.8252H106.26ZM106.26 48.6753H108.787C109.539 48.6753 110.115 48.4995 110.516 48.1479C110.916 47.7915 111.116 47.2788 111.116 46.6099C111.116 45.9751 110.916 45.4673 110.516 45.0864C110.115 44.7056 109.566 44.5078 108.868 44.4932H106.26V48.6753ZM118.228 49.686H115.723V54H114.31V43.3359H117.84C119.041 43.3359 119.964 43.6094 120.608 44.1562C121.258 44.7031 121.583 45.499 121.583 46.5439C121.583 47.208 121.402 47.7866 121.041 48.2798C120.684 48.7729 120.186 49.1416 119.546 49.3857L122.051 53.9121V54H120.542L118.228 49.686ZM115.723 48.5361H117.884C118.582 48.5361 119.136 48.3555 119.546 47.9941C119.961 47.6328 120.169 47.1494 120.169 46.5439C120.169 45.8848 119.971 45.3794 119.576 45.0278C119.185 44.6763 118.619 44.498 117.876 44.4932H115.723V48.5361ZM129.588 49.0708H124.966V52.8501H130.335V54H123.56V43.3359H130.262V44.4932H124.966V47.9209H129.588V49.0708ZM135.228 49.2466C134.021 48.8999 133.143 48.4751 132.591 47.9722C132.044 47.4644 131.771 46.8394 131.771 46.0972C131.771 45.2573 132.105 44.564 132.774 44.0171C133.448 43.4653 134.322 43.1895 135.396 43.1895C136.128 43.1895 136.78 43.3311 137.352 43.6143C137.928 43.8975 138.372 44.2881 138.685 44.7861C139.002 45.2842 139.161 45.8286 139.161 46.4194H137.747C137.747 45.7749 137.542 45.2695 137.132 44.9033C136.722 44.5322 136.143 44.3467 135.396 44.3467C134.703 44.3467 134.161 44.5005 133.77 44.8081C133.384 45.1108 133.191 45.5332 133.191 46.0752C133.191 46.5098 133.375 46.8784 133.741 47.1812C134.112 47.479 134.739 47.7524 135.623 48.0015C136.512 48.2505 137.205 48.5264 137.703 48.8291C138.206 49.127 138.577 49.4761 138.816 49.8765C139.061 50.2769 139.183 50.748 139.183 51.29C139.183 52.1543 138.846 52.8477 138.172 53.3701C137.498 53.8877 136.597 54.1465 135.469 54.1465C134.737 54.1465 134.053 54.0073 133.418 53.729C132.784 53.4458 132.293 53.0601 131.946 52.5718C131.604 52.0835 131.434 51.5293 131.434 50.9092H132.847C132.847 51.5537 133.084 52.064 133.558 52.4399C134.036 52.811 134.673 52.9966 135.469 52.9966C136.211 52.9966 136.78 52.8452 137.176 52.5425C137.571 52.2397 137.769 51.8271 137.769 51.3047C137.769 50.7822 137.586 50.3794 137.22 50.0962C136.854 49.8081 136.189 49.5249 135.228 49.2466ZM149.195 49.0122C149.195 50.0571 149.019 50.9702 148.667 51.7515C148.316 52.5278 147.818 53.1211 147.173 53.5312C146.529 53.9414 145.777 54.1465 144.917 54.1465C144.078 54.1465 143.333 53.9414 142.684 53.5312C142.034 53.1162 141.529 52.5278 141.167 51.7661C140.811 50.9995 140.628 50.1133 140.618 49.1074V48.3384C140.618 47.313 140.796 46.4072 141.153 45.6211C141.509 44.835 142.012 44.2344 142.662 43.8193C143.316 43.3994 144.063 43.1895 144.903 43.1895C145.757 43.1895 146.509 43.397 147.159 43.812C147.813 44.2222 148.316 44.8203 148.667 45.6064C149.019 46.3877 149.195 47.2983 149.195 48.3384V49.0122ZM147.796 48.3237C147.796 47.0591 147.542 46.0898 147.034 45.416C146.526 44.7373 145.816 44.3979 144.903 44.3979C144.014 44.3979 143.313 44.7373 142.801 45.416C142.293 46.0898 142.032 47.0273 142.017 48.2285V49.0122C142.017 50.2378 142.273 51.2021 142.786 51.9053C143.304 52.6035 144.014 52.9526 144.917 52.9526C145.826 52.9526 146.529 52.623 147.027 51.9639C147.525 51.2998 147.781 50.3501 147.796 49.1147V48.3237ZM154.446 49.2466C153.24 48.8999 152.361 48.4751 151.81 47.9722C151.263 47.4644 150.989 46.8394 150.989 46.0972C150.989 45.2573 151.324 44.564 151.993 44.0171C152.667 43.4653 153.541 43.1895 154.615 43.1895C155.347 43.1895 155.999 43.3311 156.57 43.6143C157.146 43.8975 157.591 44.2881 157.903 44.7861C158.221 45.2842 158.379 45.8286 158.379 46.4194H156.966C156.966 45.7749 156.761 45.2695 156.351 44.9033C155.94 44.5322 155.362 44.3467 154.615 44.3467C153.921 44.3467 153.379 44.5005 152.989 44.8081C152.603 45.1108 152.41 45.5332 152.41 46.0752C152.41 46.5098 152.593 46.8784 152.959 47.1812C153.331 47.479 153.958 47.7524 154.842 48.0015C155.73 48.2505 156.424 48.5264 156.922 48.8291C157.425 49.127 157.796 49.4761 158.035 49.8765C158.279 50.2769 158.401 50.748 158.401 51.29C158.401 52.1543 158.064 52.8477 157.391 53.3701C156.717 53.8877 155.816 54.1465 154.688 54.1465C153.956 54.1465 153.272 54.0073 152.637 53.729C152.002 53.4458 151.512 53.0601 151.165 52.5718C150.823 52.0835 150.652 51.5293 150.652 50.9092H152.066C152.066 51.5537 152.303 52.064 152.776 52.4399C153.255 52.811 153.892 52.9966 154.688 52.9966C155.43 52.9966 155.999 52.8452 156.395 52.5425C156.79 52.2397 156.988 51.8271 156.988 51.3047C156.988 50.7822 156.805 50.3794 156.438 50.0962C156.072 49.8081 155.408 49.5249 154.446 49.2466ZM169.82 51.2168H165.352L164.349 54H162.898L166.971 43.3359H168.201L172.281 54H170.838L169.82 51.2168ZM165.777 50.0596H169.402L167.586 45.0718L165.777 50.0596ZM181.773 49.0122C181.773 50.0425 181.609 50.9312 181.282 51.6782C180.955 52.4204 180.496 53.0015 179.905 53.4214L181.81 54.9155L180.85 55.8018L178.602 54.0146C178.25 54.1025 177.879 54.1465 177.488 54.1465C176.648 54.1465 175.904 53.9414 175.254 53.5312C174.605 53.1162 174.1 52.5278 173.738 51.7661C173.382 50.9995 173.199 50.1133 173.189 49.1074V48.3384C173.189 47.313 173.367 46.4072 173.724 45.6211C174.08 44.835 174.583 44.2344 175.232 43.8193C175.887 43.3994 176.634 43.1895 177.474 43.1895C178.333 43.1895 179.087 43.397 179.737 43.812C180.391 44.2271 180.894 44.8252 181.246 45.6064C181.597 46.3828 181.773 47.291 181.773 48.3311V49.0122ZM180.367 48.3237C180.367 47.0688 180.115 46.1021 179.612 45.4233C179.114 44.7397 178.401 44.3979 177.474 44.3979C176.59 44.3979 175.892 44.7373 175.379 45.416C174.871 46.0898 174.61 47.0273 174.595 48.2285V49.0122C174.595 50.2329 174.849 51.1948 175.357 51.8979C175.87 52.6011 176.58 52.9526 177.488 52.9526C178.396 52.9526 179.1 52.623 179.598 51.9639C180.096 51.2998 180.352 50.3501 180.367 49.1147V48.3237ZM191.448 43.3359V50.5869C191.443 51.5928 191.126 52.4155 190.496 53.0552C189.871 53.6948 189.021 54.0537 187.947 54.1318L187.574 54.1465C186.407 54.1465 185.477 53.8315 184.783 53.2017C184.09 52.5718 183.738 51.7051 183.729 50.6016V43.3359H185.12V50.5576C185.12 51.3291 185.333 51.9297 185.757 52.3594C186.182 52.7842 186.788 52.9966 187.574 52.9966C188.37 52.9966 188.978 52.7842 189.397 52.3594C189.822 51.9346 190.035 51.3364 190.035 50.5649V43.3359H191.448ZM195.176 54H193.77V43.3359H195.176V54ZM209.671 54H208.257L202.889 45.7822V54H201.475V43.3359H202.889L208.272 51.5903V43.3359H209.671V54ZM220.372 49.0122C220.372 50.0571 220.196 50.9702 219.844 51.7515C219.493 52.5278 218.995 53.1211 218.35 53.5312C217.706 53.9414 216.954 54.1465 216.094 54.1465C215.254 54.1465 214.51 53.9414 213.86 53.5312C213.211 53.1162 212.706 52.5278 212.344 51.7661C211.988 50.9995 211.805 50.1133 211.795 49.1074V48.3384C211.795 47.313 211.973 46.4072 212.33 45.6211C212.686 44.835 213.189 44.2344 213.838 43.8193C214.493 43.3994 215.24 43.1895 216.08 43.1895C216.934 43.1895 217.686 43.397 218.335 43.812C218.99 44.2222 219.493 44.8203 219.844 45.6064C220.196 46.3877 220.372 47.2983 220.372 48.3384V49.0122ZM218.973 48.3237C218.973 47.0591 218.719 46.0898 218.211 45.416C217.703 44.7373 216.993 44.3979 216.08 44.3979C215.191 44.3979 214.49 44.7373 213.978 45.416C213.47 46.0898 213.208 47.0273 213.194 48.2285V49.0122C213.194 50.2378 213.45 51.2021 213.963 51.9053C214.48 52.6035 215.191 52.9526 216.094 52.9526C217.002 52.9526 217.706 52.623 218.204 51.9639C218.702 51.2998 218.958 50.3501 218.973 49.1147V48.3237ZM227.608 49.8252V54H226.202V43.3359H230.135C231.302 43.3359 232.215 43.6338 232.874 44.2295C233.538 44.8252 233.87 45.6138 233.87 46.5952C233.87 47.6304 233.545 48.4287 232.896 48.9902C232.251 49.5469 231.326 49.8252 230.12 49.8252H227.608ZM227.608 48.6753H230.135C230.887 48.6753 231.463 48.4995 231.863 48.1479C232.264 47.7915 232.464 47.2788 232.464 46.6099C232.464 45.9751 232.264 45.4673 231.863 45.0864C231.463 44.7056 230.914 44.5078 230.215 44.4932H227.608V48.6753ZM243.868 49.0122C243.868 50.0571 243.692 50.9702 243.34 51.7515C242.989 52.5278 242.491 53.1211 241.846 53.5312C241.202 53.9414 240.45 54.1465 239.59 54.1465C238.75 54.1465 238.006 53.9414 237.356 53.5312C236.707 53.1162 236.202 52.5278 235.84 51.7661C235.484 50.9995 235.301 50.1133 235.291 49.1074V48.3384C235.291 47.313 235.469 46.4072 235.826 45.6211C236.182 44.835 236.685 44.2344 237.334 43.8193C237.989 43.3994 238.736 43.1895 239.576 43.1895C240.43 43.1895 241.182 43.397 241.832 43.812C242.486 44.2222 242.989 44.8203 243.34 45.6064C243.692 46.3877 243.868 47.2983 243.868 48.3384V49.0122ZM242.469 48.3237C242.469 47.0591 242.215 46.0898 241.707 45.416C241.199 44.7373 240.489 44.3979 239.576 44.3979C238.687 44.3979 237.986 44.7373 237.474 45.416C236.966 46.0898 236.705 47.0273 236.69 48.2285V49.0122C236.69 50.2378 236.946 51.2021 237.459 51.9053C237.977 52.6035 238.687 52.9526 239.59 52.9526C240.499 52.9526 241.202 52.623 241.7 51.9639C242.198 51.2998 242.454 50.3501 242.469 49.1147V48.3237ZM249.888 49.686H247.383V54H245.97V43.3359H249.5C250.701 43.3359 251.624 43.6094 252.269 44.1562C252.918 44.7031 253.243 45.499 253.243 46.5439C253.243 47.208 253.062 47.7866 252.701 48.2798C252.344 48.7729 251.846 49.1416 251.207 49.3857L253.711 53.9121V54H252.203L249.888 49.686ZM247.383 48.5361H249.544C250.242 48.5361 250.796 48.3555 251.207 47.9941C251.622 47.6328 251.829 47.1494 251.829 46.5439C251.829 45.8848 251.631 45.3794 251.236 45.0278C250.845 44.6763 250.279 44.498 249.537 44.4932H247.383V48.5361ZM262.002 44.4932H258.575V54H257.176V44.4932H253.755V43.3359H262.002V44.4932ZM268.887 51.2168H264.419L263.416 54H261.966L266.038 43.3359H267.269L271.348 54H269.905L268.887 51.2168ZM264.844 50.0596H268.47L266.653 45.0718L264.844 50.0596ZM274.197 52.8501H279.251V54H272.784V43.3359H274.197V52.8501ZM282.159 50.9897H280.936L280.84 43.3359H282.261L282.159 50.9897ZM280.789 53.3188C280.789 53.0991 280.855 52.916 280.987 52.7695C281.124 52.6182 281.324 52.5425 281.587 52.5425C281.851 52.5425 282.051 52.6182 282.188 52.7695C282.325 52.916 282.393 53.0991 282.393 53.3188C282.393 53.5386 282.325 53.7217 282.188 53.8682C282.051 54.0098 281.851 54.0806 281.587 54.0806C281.324 54.0806 281.124 54.0098 280.987 53.8682C280.855 53.7217 280.789 53.5386 280.789 53.3188ZM41.082 68.6162C40.9502 69.7441 40.5327 70.6157 39.8296 71.231C39.1313 71.8413 38.2012 72.1465 37.0391 72.1465C35.7793 72.1465 34.7686 71.6948 34.0068 70.7915C33.25 69.8882 32.8716 68.6797 32.8716 67.166V66.1406C32.8716 65.1494 33.0474 64.2778 33.3989 63.5259C33.7554 62.7739 34.2583 62.1978 34.9077 61.7974C35.5571 61.3921 36.3091 61.1895 37.1636 61.1895C38.2964 61.1895 39.2046 61.5068 39.8882 62.1416C40.5718 62.7715 40.9697 63.6455 41.082 64.7637H39.6685C39.5464 63.9141 39.2803 63.2988 38.8701 62.918C38.4648 62.5371 37.896 62.3467 37.1636 62.3467C36.2651 62.3467 35.5596 62.6787 35.0469 63.3428C34.5391 64.0068 34.2852 64.9517 34.2852 66.1772V67.21C34.2852 68.3672 34.5269 69.2876 35.0103 69.9712C35.4937 70.6548 36.1699 70.9966 37.0391 70.9966C37.8203 70.9966 38.4185 70.8208 38.8335 70.4692C39.2534 70.1128 39.5317 69.4951 39.6685 68.6162H41.082ZM44.4219 70.8501H49.4756V72H43.0083V61.3359H44.4219V70.8501ZM52.5884 72H51.1821V61.3359H52.5884V72ZM63.0107 68.6162C62.8789 69.7441 62.4614 70.6157 61.7583 71.231C61.0601 71.8413 60.1299 72.1465 58.9678 72.1465C57.708 72.1465 56.6973 71.6948 55.9355 70.7915C55.1787 69.8882 54.8003 68.6797 54.8003 67.166V66.1406C54.8003 65.1494 54.9761 64.2778 55.3276 63.5259C55.6841 62.7739 56.187 62.1978 56.8364 61.7974C57.4858 61.3921 58.2378 61.1895 59.0923 61.1895C60.2251 61.1895 61.1333 61.5068 61.8169 62.1416C62.5005 62.7715 62.8984 63.6455 63.0107 64.7637H61.5972C61.4751 63.9141 61.209 63.2988 60.7988 62.918C60.3936 62.5371 59.8247 62.3467 59.0923 62.3467C58.1938 62.3467 57.4883 62.6787 56.9756 63.3428C56.4678 64.0068 56.2139 64.9517 56.2139 66.1772V67.21C56.2139 68.3672 56.4556 69.2876 56.939 69.9712C57.4224 70.6548 58.0986 70.9966 58.9678 70.9966C59.749 70.9966 60.3472 70.8208 60.7622 70.4692C61.1821 70.1128 61.4604 69.4951 61.5972 68.6162H63.0107ZM70.8257 69.2168H66.3579L65.3545 72H63.9043L67.9766 61.3359H69.207L73.2866 72H71.8438L70.8257 69.2168ZM66.7827 68.0596H70.4082L68.5918 63.0718L66.7827 68.0596ZM86.6387 72H85.2251L79.8564 63.7822V72H78.4429V61.3359H79.8564L85.2397 69.5903V61.3359H86.6387V72ZM97.3394 67.0122C97.3394 68.0571 97.1636 68.9702 96.812 69.7515C96.4604 70.5278 95.9624 71.1211 95.3179 71.5312C94.6733 71.9414 93.9214 72.1465 93.062 72.1465C92.2222 72.1465 91.4775 71.9414 90.8281 71.5312C90.1787 71.1162 89.6733 70.5278 89.312 69.7661C88.9556 68.9995 88.7725 68.1133 88.7627 67.1074V66.3384C88.7627 65.313 88.9409 64.4072 89.2974 63.6211C89.6538 62.835 90.1567 62.2344 90.8062 61.8193C91.4604 61.3994 92.2075 61.1895 93.0474 61.1895C93.9019 61.1895 94.6538 61.397 95.3032 61.812C95.9575 62.2222 96.4604 62.8203 96.812 63.6064C97.1636 64.3877 97.3394 65.2983 97.3394 66.3384V67.0122ZM95.9404 66.3237C95.9404 65.0591 95.6865 64.0898 95.1787 63.416C94.6709 62.7373 93.9604 62.3979 93.0474 62.3979C92.1587 62.3979 91.458 62.7373 90.9453 63.416C90.4375 64.0898 90.1763 65.0273 90.1616 66.2285V67.0122C90.1616 68.2378 90.418 69.2021 90.9307 69.9053C91.4482 70.6035 92.1587 70.9526 93.062 70.9526C93.9702 70.9526 94.6733 70.623 95.1714 69.9639C95.6694 69.2998 95.9258 68.3501 95.9404 67.1147V66.3237ZM104.576 67.8252V72H103.169V61.3359H107.103C108.27 61.3359 109.183 61.6338 109.842 62.2295C110.506 62.8252 110.838 63.6138 110.838 64.5952C110.838 65.6304 110.513 66.4287 109.864 66.9902C109.219 67.5469 108.294 67.8252 107.088 67.8252H104.576ZM104.576 66.6753H107.103C107.854 66.6753 108.431 66.4995 108.831 66.1479C109.231 65.7915 109.432 65.2788 109.432 64.6099C109.432 63.9751 109.231 63.4673 108.831 63.0864C108.431 62.7056 107.881 62.5078 107.183 62.4932H104.576V66.6753ZM120.835 67.0122C120.835 68.0571 120.66 68.9702 120.308 69.7515C119.957 70.5278 119.458 71.1211 118.814 71.5312C118.169 71.9414 117.417 72.1465 116.558 72.1465C115.718 72.1465 114.974 71.9414 114.324 71.5312C113.675 71.1162 113.169 70.5278 112.808 69.7661C112.452 68.9995 112.269 68.1133 112.259 67.1074V66.3384C112.259 65.313 112.437 64.4072 112.793 63.6211C113.15 62.835 113.653 62.2344 114.302 61.8193C114.957 61.3994 115.704 61.1895 116.543 61.1895C117.398 61.1895 118.15 61.397 118.799 61.812C119.454 62.2222 119.957 62.8203 120.308 63.6064C120.66 64.3877 120.835 65.2983 120.835 66.3384V67.0122ZM119.437 66.3237C119.437 65.0591 119.183 64.0898 118.675 63.416C118.167 62.7373 117.457 62.3979 116.543 62.3979C115.655 62.3979 114.954 62.7373 114.441 63.416C113.934 64.0898 113.672 65.0273 113.658 66.2285V67.0122C113.658 68.2378 113.914 69.2021 114.427 69.9053C114.944 70.6035 115.655 70.9526 116.558 70.9526C117.466 70.9526 118.169 70.623 118.667 69.9639C119.166 69.2998 119.422 68.3501 119.437 67.1147V66.3237ZM126.856 67.686H124.351V72H122.938V61.3359H126.468C127.669 61.3359 128.592 61.6094 129.236 62.1562C129.886 62.7031 130.21 63.499 130.21 64.5439C130.21 65.208 130.03 65.7866 129.668 66.2798C129.312 66.7729 128.814 67.1416 128.174 67.3857L130.679 71.9121V72H129.17L126.856 67.686ZM124.351 66.5361H126.512C127.21 66.5361 127.764 66.3555 128.174 65.9941C128.589 65.6328 128.797 65.1494 128.797 64.5439C128.797 63.8848 128.599 63.3794 128.204 63.0278C127.813 62.6763 127.247 62.498 126.504 62.4932H124.351V66.5361ZM138.97 62.4932H135.542V72H134.144V62.4932H130.723V61.3359H138.97V62.4932ZM145.855 69.2168H141.387L140.384 72H138.934L143.006 61.3359H144.236L148.316 72H146.873L145.855 69.2168ZM141.812 68.0596H145.438L143.621 63.0718L141.812 68.0596ZM151.165 70.8501H156.219V72H149.751V61.3359H151.165V70.8501ZM162.95 67.8252V72H161.543V61.3359H165.477C166.644 61.3359 167.557 61.6338 168.216 62.2295C168.88 62.8252 169.212 63.6138 169.212 64.5952C169.212 65.6304 168.887 66.4287 168.238 66.9902C167.593 67.5469 166.668 67.8252 165.462 67.8252H162.95ZM162.95 66.6753H165.477C166.229 66.6753 166.805 66.4995 167.205 66.1479C167.605 65.7915 167.806 65.2788 167.806 64.6099C167.806 63.9751 167.605 63.4673 167.205 63.0864C166.805 62.7056 166.255 62.5078 165.557 62.4932H162.95V66.6753ZM175.884 69.2168H171.417L170.413 72H168.963L173.035 61.3359H174.266L178.345 72H176.902L175.884 69.2168ZM171.841 68.0596H175.467L173.65 63.0718L171.841 68.0596ZM183.692 67.686H181.187V72H179.773V61.3359H183.304C184.505 61.3359 185.428 61.6094 186.072 62.1562C186.722 62.7031 187.046 63.499 187.046 64.5439C187.046 65.208 186.866 65.7866 186.504 66.2798C186.148 66.7729 185.65 67.1416 185.01 67.3857L187.515 71.9121V72H186.006L183.692 67.686ZM181.187 66.5361H183.348C184.046 66.5361 184.6 66.3555 185.01 65.9941C185.425 65.6328 185.633 65.1494 185.633 64.5439C185.633 63.8848 185.435 63.3794 185.04 63.0278C184.649 62.6763 184.083 62.498 183.34 62.4932H181.187V66.5361ZM194.913 69.2168H190.445L189.441 72H187.991L192.063 61.3359H193.294L197.374 72H195.931L194.913 69.2168ZM190.87 68.0596H194.495L192.679 63.0718L190.87 68.0596ZM205.672 67.2466C204.466 66.8999 203.587 66.4751 203.035 65.9722C202.488 65.4644 202.215 64.8394 202.215 64.0972C202.215 63.2573 202.549 62.564 203.218 62.0171C203.892 61.4653 204.766 61.1895 205.84 61.1895C206.573 61.1895 207.225 61.3311 207.796 61.6143C208.372 61.8975 208.816 62.2881 209.129 62.7861C209.446 63.2842 209.605 63.8286 209.605 64.4194H208.191C208.191 63.7749 207.986 63.2695 207.576 62.9033C207.166 62.5322 206.587 62.3467 205.84 62.3467C205.147 62.3467 204.605 62.5005 204.214 62.8081C203.829 63.1108 203.636 63.5332 203.636 64.0752C203.636 64.5098 203.819 64.8784 204.185 65.1812C204.556 65.479 205.184 65.7524 206.067 66.0015C206.956 66.2505 207.649 66.5264 208.147 66.8291C208.65 67.127 209.021 67.4761 209.261 67.8765C209.505 68.2769 209.627 68.748 209.627 69.29C209.627 70.1543 209.29 70.8477 208.616 71.3701C207.942 71.8877 207.042 72.1465 205.914 72.1465C205.181 72.1465 204.498 72.0073 203.863 71.729C203.228 71.4458 202.737 71.0601 202.391 70.5718C202.049 70.0835 201.878 69.5293 201.878 68.9092H203.292C203.292 69.5537 203.528 70.064 204.002 70.4399C204.48 70.811 205.118 70.9966 205.914 70.9966C206.656 70.9966 207.225 70.8452 207.62 70.5425C208.016 70.2397 208.213 69.8271 208.213 69.3047C208.213 68.7822 208.03 68.3794 207.664 68.0962C207.298 67.8081 206.634 67.5249 205.672 67.2466ZM217.464 67.0708H212.842V70.8501H218.211V72H211.436V61.3359H218.138V62.4932H212.842V65.9209H217.464V67.0708ZM40.606 80.4932H37.1782V90H35.7793V80.4932H32.3589V79.3359H40.606V80.4932ZM48.2158 85.0708H43.5942V88.8501H48.9629V90H42.188V79.3359H48.8896V80.4932H43.5942V83.9209H48.2158V85.0708ZM52.127 88.8501H57.1807V90H50.7134V79.3359H52.127V88.8501ZM64.8125 85.0708H60.1909V88.8501H65.5596V90H58.7847V79.3359H65.4863V80.4932H60.1909V83.9209H64.8125V85.0708ZM74.8247 80.4932H71.397V90H69.998V80.4932H66.5776V79.3359H74.8247V80.4932ZM80.3179 85.686H77.813V90H76.3994V79.3359H79.9297C81.1309 79.3359 82.0537 79.6094 82.6982 80.1562C83.3477 80.7031 83.6724 81.499 83.6724 82.5439C83.6724 83.208 83.4917 83.7866 83.1304 84.2798C82.7739 84.7729 82.2759 85.1416 81.6362 85.3857L84.1411 89.9121V90H82.6323L80.3179 85.686ZM77.813 84.5361H79.9736C80.6719 84.5361 81.2261 84.3555 81.6362 83.9941C82.0513 83.6328 82.2588 83.1494 82.2588 82.5439C82.2588 81.8848 82.061 81.3794 81.6655 81.0278C81.2749 80.6763 80.7085 80.498 79.9663 80.4932H77.813V84.5361ZM91.5386 87.2168H87.0708L86.0674 90H84.6172L88.6895 79.3359H89.9199L93.9995 90H92.5566L91.5386 87.2168ZM87.4956 86.0596H91.1211L89.3047 81.0718L87.4956 86.0596ZM103.631 90H102.217L96.8486 81.7822V90H95.4351V79.3359H96.8486L102.232 87.5903V79.3359H103.631V90ZM109.271 85.2466C108.064 84.8999 107.186 84.4751 106.634 83.9722C106.087 83.4644 105.813 82.8394 105.813 82.0972C105.813 81.2573 106.148 80.564 106.817 80.0171C107.491 79.4653 108.365 79.1895 109.439 79.1895C110.171 79.1895 110.823 79.3311 111.395 79.6143C111.971 79.8975 112.415 80.2881 112.728 80.7861C113.045 81.2842 113.204 81.8286 113.204 82.4194H111.79C111.79 81.7749 111.585 81.2695 111.175 80.9033C110.765 80.5322 110.186 80.3467 109.439 80.3467C108.746 80.3467 108.204 80.5005 107.813 80.8081C107.427 81.1108 107.234 81.5332 107.234 82.0752C107.234 82.5098 107.417 82.8784 107.784 83.1812C108.155 83.479 108.782 83.7524 109.666 84.0015C110.555 84.2505 111.248 84.5264 111.746 84.8291C112.249 85.127 112.62 85.4761 112.859 85.8765C113.104 86.2769 113.226 86.748 113.226 87.29C113.226 88.1543 112.889 88.8477 112.215 89.3701C111.541 89.8877 110.64 90.1465 109.512 90.1465C108.78 90.1465 108.096 90.0073 107.461 89.729C106.827 89.4458 106.336 89.0601 105.989 88.5718C105.647 88.0835 105.477 87.5293 105.477 86.9092H106.89C106.89 87.5537 107.127 88.064 107.601 88.4399C108.079 88.811 108.716 88.9966 109.512 88.9966C110.254 88.9966 110.823 88.8452 111.219 88.5425C111.614 88.2397 111.812 87.8271 111.812 87.3047C111.812 86.7822 111.629 86.3794 111.263 86.0962C110.896 85.8081 110.232 85.5249 109.271 85.2466ZM116.441 85.8252V90H115.035V79.3359H118.968C120.135 79.3359 121.048 79.6338 121.707 80.2295C122.371 80.8252 122.703 81.6138 122.703 82.5952C122.703 83.6304 122.378 84.4287 121.729 84.9902C121.084 85.5469 120.159 85.8252 118.953 85.8252H116.441ZM116.441 84.6753H118.968C119.72 84.6753 120.296 84.4995 120.696 84.1479C121.097 83.7915 121.297 83.2788 121.297 82.6099C121.297 81.9751 121.097 81.4673 120.696 81.0864C120.296 80.7056 119.747 80.5078 119.048 80.4932H116.441V84.6753ZM132.701 85.0122C132.701 86.0571 132.525 86.9702 132.173 87.7515C131.822 88.5278 131.324 89.1211 130.679 89.5312C130.035 89.9414 129.283 90.1465 128.423 90.1465C127.583 90.1465 126.839 89.9414 126.189 89.5312C125.54 89.1162 125.035 88.5278 124.673 87.7661C124.317 86.9995 124.134 86.1133 124.124 85.1074V84.3384C124.124 83.313 124.302 82.4072 124.659 81.6211C125.015 80.835 125.518 80.2344 126.167 79.8193C126.822 79.3994 127.569 79.1895 128.409 79.1895C129.263 79.1895 130.015 79.397 130.665 79.812C131.319 80.2222 131.822 80.8203 132.173 81.6064C132.525 82.3877 132.701 83.2983 132.701 84.3384V85.0122ZM131.302 84.3237C131.302 83.0591 131.048 82.0898 130.54 81.416C130.032 80.7373 129.322 80.3979 128.409 80.3979C127.52 80.3979 126.819 80.7373 126.307 81.416C125.799 82.0898 125.538 83.0273 125.523 84.2285V85.0122C125.523 86.2378 125.779 87.2021 126.292 87.9053C126.81 88.6035 127.52 88.9526 128.423 88.9526C129.332 88.9526 130.035 88.623 130.533 87.9639C131.031 87.2998 131.287 86.3501 131.302 85.1147V84.3237ZM138.721 85.686H136.216V90H134.803V79.3359H138.333C139.534 79.3359 140.457 79.6094 141.102 80.1562C141.751 80.7031 142.076 81.499 142.076 82.5439C142.076 83.208 141.895 83.7866 141.534 84.2798C141.177 84.7729 140.679 85.1416 140.04 85.3857L142.544 89.9121V90H141.036L138.721 85.686ZM136.216 84.5361H138.377C139.075 84.5361 139.629 84.3555 140.04 83.9941C140.455 83.6328 140.662 83.1494 140.662 82.5439C140.662 81.8848 140.464 81.3794 140.069 81.0278C139.678 80.6763 139.112 80.498 138.37 80.4932H136.216V84.5361ZM150.835 80.4932H147.408V90H146.009V80.4932H142.588V79.3359H150.835V80.4932ZM157.72 87.2168H153.252L152.249 90H150.799L154.871 79.3359H156.102L160.181 90H158.738L157.72 87.2168ZM153.677 86.0596H157.303L155.486 81.0718L153.677 86.0596ZM165.528 85.686H163.023V90H161.609V79.3359H165.14C166.341 79.3359 167.264 79.6094 167.908 80.1562C168.558 80.7031 168.882 81.499 168.882 82.5439C168.882 83.208 168.702 83.7866 168.34 84.2798C167.984 84.7729 167.486 85.1416 166.846 85.3857L169.351 89.9121V90H167.842L165.528 85.686ZM163.023 84.5361H165.184C165.882 84.5361 166.436 84.3555 166.846 83.9941C167.261 83.6328 167.469 83.1494 167.469 82.5439C167.469 81.8848 167.271 81.3794 166.875 81.0278C166.485 80.6763 165.918 80.498 165.176 80.4932H163.023V84.5361ZM172.164 86.9897H170.94L170.845 79.3359H172.266L172.164 86.9897ZM170.794 89.3188C170.794 89.0991 170.86 88.916 170.992 88.7695C171.128 88.6182 171.329 88.5425 171.592 88.5425C171.856 88.5425 172.056 88.6182 172.193 88.7695C172.33 88.916 172.398 89.0991 172.398 89.3188C172.398 89.5386 172.33 89.7217 172.193 89.8682C172.056 90.0098 171.856 90.0806 171.592 90.0806C171.329 90.0806 171.128 90.0098 170.992 89.8682C170.86 89.7217 170.794 89.5386 170.794 89.3188Z" fill="black"/>
</svg>
